PathFileType	4	(X/Y/Z)	C:\Users\WrightLab\Desktop\Jo\P2_Trial17.trc
DataRate	CameraRate	NumFrames	NumMarkers	Units	OrigDataRate	OrigDataStartFrame	OrigNumFrames
100.00	100.00	      10	19	mm	100.00	259	      1033
Frame#	Time	Headset_Front			Headset_Back			Headset_Left			Headset_Right			Left_Shoulder			Right_Shoulder			Sternum			C7			Left Elbow			Right Elbow			Left Wrist			Right Wrist			Left ASIS			Right ASIS			S2			Left Knee			Right Knee			Left Ankle			Right Ankle			
		X1	Y1	Z1	X2	Y2	Z2	X3	Y3	Z3	X4	Y4	Z4	X5	Y5	Z5	X6	Y6	Z6	X7	Y7	Z7	X8	Y8	Z8	X9	Y9	Z9	X10	Y10	Z10	X11	Y11	Z11	X12	Y12	Z12	X13	Y13	Z13	X14	Y14	Z14	X15	Y15	Z15	X16	Y16	Z16	X17	Y17	Z17	X18	Y18	Z18	X19	Y19	Z19	

259	2.580	105.20761	1427.86914	1095.94519	198.54715	1705.48010	1191.25415	68.83900	1593.84827	1221.15320	226.40170	1513.43152	1070.30286	73.66047	1473.42334	1305.97827	398.72372	1488.54919	1261.10864	240.26341	1349.23071	1241.38550	260.06369	1492.45203	1388.34717	-33.12767	1131.10913	1318.51318	489.64594	1147.12219	1180.38489	-96.95125	963.61884	1242.99683	535.73724	1202.94519	1386.79565	195.26337	1076.69727	1250.27625	324.27985	1061.15674	1238.95422	257.19876	1003.62878	1507.56531	40.08687	496.99118	1415.33875	447.91406	587.79974	1334.86658	13.34137	145.09714	1487.24316	414.22369	151.74138	1292.08313	
260	2.590	107.15968	1426.33447	1090.53857	199.07301	1704.32666	1185.83533	70.13315	1592.37964	1215.54297	227.99185	1512.19336	1063.63635	75.49106	1472.51672	1301.20789	400.03726	1487.78223	1255.42908	242.23857	1349.21790	1237.60962	261.78174	1492.41333	1383.29688	-29.10137	1129.49683	1316.48792	492.42270	1146.54895	1175.81555	-92.09242	959.41455	1243.84290	538.16479	1203.38586	1383.11633	196.82031	1075.68958	1248.82104	325.74493	1059.98340	1235.10913	259.58896	1003.41632	1504.65723	43.71093	496.23257	1411.19299	455.09122	588.18604	1332.31677	12.92695	145.01373	1485.34326	411.64377	152.70073	1291.38782	
261	2.600	109.30934	1424.99719	1084.70496	201.22891	1703.36328	1180.84912	72.33570	1590.55457	1209.38159	230.91019	1511.64221	1059.26709	77.97913	1471.50574	1296.13086	401.21082	1487.45178	1250.43640	243.34456	1348.19263	1233.99658	263.20874	1492.06787	1378.65356	-25.18473	1128.16382	1315.21240	495.14545	1146.17236	1172.09644	-87.19863	955.62830	1245.55676	541.06537	1203.99646	1378.73975	198.68036	1074.72058	1246.25085	327.84348	1058.74011	1236.90344	262.46143	1003.98126	1503.15015	47.00867	495.35883	1406.46814	459.80023	587.01691	1332.33704	12.87976	144.79112	1483.36670	410.91672	152.96284	1292.13757	
262	2.610	111.33916	1423.46582	1078.77966	201.81808	1701.59900	1175.47314	74.11263	1588.39343	1203.62708	231.82245	1510.12769	1053.83594	79.46339	1470.68945	1291.39673	404.27228	1486.16687	1246.08765	245.08006	1346.66724	1229.83521	265.17081	1492.06775	1373.66492	-21.60550	1126.58118	1313.89880	498.26581	1145.04065	1168.28052	-82.62882	951.99182	1247.06079	544.14716	1204.66431	1373.82373	199.91545	1073.66028	1244.20288	329.00174	1057.76245	1232.79480	265.10172	1004.81958	1500.73633	51.69501	494.69406	1401.11768	463.93839	586.10541	1332.65479	12.73793	144.85895	1481.56628	411.08136	154.28505	1292.53479	
263	2.620	113.32609	1421.87976	1072.89685	203.01517	1699.87634	1171.02197	75.16810	1586.59680	1197.97241	232.33633	1508.78467	1048.08142	80.81803	1469.83777	1287.27856	403.96335	1485.72791	1240.08765	246.08827	1345.55994	1226.03699	266.44052	1492.18042	1369.29236	-18.27045	1125.04993	1312.88953	500.62628	1144.84216	1164.11768	-77.91372	947.47046	1249.43518	546.86639	1204.63367	1369.60510	200.81340	1072.83569	1242.73462				268.45502	1004.46387	1498.50549	56.25055	493.67935	1395.37195	467.59625	585.66095	1333.03516	12.98169	143.80424	1479.01465	410.90167	154.45145	1293.51062	
264	2.630	115.15269	1420.16187	1067.49170	202.88528	1698.47583	1166.16553	75.87361	1584.33667	1192.42651	235.12422	1507.42163	1042.83447	81.45374	1468.97266	1282.99988	405.54062	1485.11938	1234.65442	247.43166	1344.41223	1221.90063	268.13831	1492.19568	1364.63293	-15.63207	1124.01831	1311.09143	503.04965	1143.42932	1159.91895	-74.21247	944.13654	1252.32214	549.38910	1205.37097	1365.18420	201.62526	1071.89319	1240.71216				271.52634	1004.83667	1495.31909	61.14589	492.42065	1389.52722	471.34616	585.83600	1333.64771	13.40071	144.36591	1476.58008	411.70929	154.70930	1295.54285	
265	2.640	117.48718	1418.18774	1061.81909	204.70753	1696.62366	1161.11487	77.18631	1582.53955	1186.91064	239.36023	1506.18628	1039.39233	82.64322	1467.72327	1278.85132	406.37527	1484.52222	1230.53345	248.80481	1343.79224	1217.48816	269.15903	1492.19275	1360.36902	-12.51290	1123.15332	1310.11682	506.03732	1142.86487	1155.81116	-69.22523	939.53210	1254.62964	551.98199	1205.92053	1361.50195	202.43190	1071.42737	1238.96509				274.16055	1005.10376	1494.09265	66.99816	491.43704	1382.44568	474.38770	586.37286	1334.29456	14.99957	145.06175	1474.01416	412.29608	154.53206	1296.94922	
266	2.650	119.57462	1416.35010	1056.64185	204.80026	1695.09692	1156.37732	77.64005	1580.01404	1181.69043	239.08537	1505.17273	1033.82117	84.32796	1467.09448	1274.54285	407.16968	1483.97766	1225.02856	249.81786	1343.05713	1212.64709	270.99146	1491.78369	1355.25793	-9.19382	1121.61487	1309.01074	508.16452	1141.98279	1151.83630	-65.39317	935.35095	1257.49951	554.14282	1205.53882	1356.44080	203.27191	1070.88379	1237.52759				277.04846	1005.19440	1491.79919	72.70658	490.68079	1376.30701	475.40872	586.35620	1334.18665	16.23008	145.74142	1470.74634	412.22263	153.67033	1298.28247	
267	2.660	121.27357	1414.42236	1052.12158	204.45673	1693.67615	1151.41406	78.11497	1578.13647	1176.79712	240.44743	1503.69812	1030.18799	85.63740	1466.09387	1270.67065	408.36136	1483.92603	1219.80261	250.87576	1341.86877	1208.39221	272.24283	1492.29065	1350.83203	-7.68387	1121.07056	1307.84900	510.73300	1141.22571	1147.45630	-61.33042	931.91193	1260.75916	556.34631	1206.16821	1352.07324	204.50055	1070.58423	1234.59448	333.37109	1056.02881	1218.44324	280.32501	1005.58325	1490.30762	78.42558	490.41617	1369.81433	475.65948	586.01172	1333.80334	17.81383	147.12212	1467.11890	414.18704	152.88580	1300.64734	
268	2.670	123.22627	1412.10425	1047.48474	204.12817	1692.25989	1146.54395	78.91649	1576.14233	1171.38525	242.20842	1502.50525	1025.81323	86.03833	1465.56836	1267.21289	409.43011	1483.84265	1215.68433	251.72585	1341.14282	1204.06372	273.78793	1492.36743	1346.84985	-4.99774	1120.33228	1307.10596	513.06696	1140.73230	1144.31775	-57.79081	927.84698	1263.87903	557.80408	1206.85767	1347.74866	205.45732	1070.14172	1233.08435	334.85120	1054.89929	1219.70862	283.07791	1005.94910	1488.07629	84.00303	489.97440	1362.49133	475.38852	585.39935	1332.21313	19.78577	148.80388	1463.77954	414.59924	152.92026	1301.60962	
